<svg xmlns="http://www.w3.org/2000/svg" xmlns:xlink="http://www.w3.org/1999/xlink" preserveAspectRatio="xMidYMid" width="39" height="19" viewBox="0 0 39 19">
  <defs>
    <style>
      .cls-1 {
        fill: #fff;
        fill-rule: evenodd;
      }
    </style>
  </defs>
  <path d="M35.232,14.320 C33.605,11.041 32.114,9.261 26.530,9.261 L26.530,9.234 C29.756,9.100 35.042,8.271 35.042,4.470 C35.042,0.107 28.726,-0.000 24.172,-0.000 L16.889,-0.000 L15.931,-0.000 L4.636,-0.000 L4.636,0.067 C8.322,0.067 8.404,1.205 8.404,4.791 L8.404,15.444 C8.404,16.916 8.336,18.830 6.587,18.830 C5.124,18.830 4.351,17.478 4.351,16.234 C4.351,15.377 4.717,14.588 5.449,14.293 C5.368,12.553 4.148,11.724 2.792,11.724 C1.383,11.724 -0.000,12.607 -0.000,14.641 C-0.000,18.281 4.283,18.924 6.587,18.924 C11.901,18.924 13.961,16.194 13.961,11.804 L13.961,4.818 C13.961,1.864 13.962,0.256 16.419,0.083 C18.857,0.252 18.858,1.771 18.858,4.818 L18.858,13.918 C18.858,17.050 18.858,18.670 15.931,18.670 L15.931,18.736 L26.855,18.736 L26.855,18.670 C24.470,18.670 24.443,17.104 24.443,13.918 L24.443,9.275 L24.985,9.275 C27.560,9.275 28.373,13.009 29.051,14.748 C31.057,19.941 33.782,19.058 39.000,18.736 L39.000,18.670 C37.102,18.750 37.048,17.974 35.232,14.320 ZM24.443,9.181 L24.443,0.094 L25.256,0.094 C28.184,0.094 29.078,2.114 29.078,4.738 C29.078,7.762 27.913,9.181 25.256,9.181 L24.443,9.181 Z" class="cls-1"/>
</svg>
