<svg xmlns="http://www.w3.org/2000/svg" xmlns:xlink="http://www.w3.org/1999/xlink" preserveAspectRatio="xMidYMid" width="33" height="26" viewBox="0 0 33 26">
  <defs>
    <style>
      .cls-1 {
        fill: #74496d;
        fill-rule: evenodd;
      }
    </style>
  </defs>
  <path d="M31.736,4.382 L28.225,2.191 L29.489,0.000 L33.000,2.264 L31.736,4.382 ZM24.645,16.433 L21.064,18.404 L21.134,14.169 L27.383,3.506 L30.964,5.770 L24.645,16.433 ZM0.000,11.320 L0.000,6.646 C0.000,6.354 0.211,6.062 0.562,6.062 L24.153,6.062 L21.064,11.320 L0.000,11.320 ZM19.589,13.730 L19.449,21.107 L25.768,17.674 L27.453,14.753 L27.453,25.416 C27.453,25.708 27.243,26.000 26.891,26.000 L0.562,26.000 C0.281,26.000 0.000,25.781 0.000,25.416 L0.000,12.854 L20.081,12.854 L19.589,13.730 ZM17.975,22.202 L14.323,21.618 C13.902,21.545 13.411,21.472 13.060,21.326 L12.989,21.253 C12.849,21.180 12.779,21.180 12.638,21.107 C12.358,21.034 12.147,20.961 11.936,20.961 C11.796,20.961 11.726,20.888 11.585,20.888 L11.515,20.888 C11.445,20.668 11.375,20.522 11.164,20.376 C10.953,20.230 10.672,20.230 10.462,20.303 C9.970,20.522 9.479,20.741 8.917,20.961 C8.777,20.449 8.706,19.938 8.706,19.354 C8.706,18.989 8.355,18.624 7.934,18.624 C7.513,18.624 7.162,18.916 7.162,19.354 C7.162,19.865 6.951,20.449 6.670,20.815 C6.530,20.961 6.389,21.107 6.179,21.253 L5.968,19.719 C5.968,19.427 5.898,18.916 5.477,18.551 C5.055,17.966 4.353,17.674 3.792,17.966 C3.370,18.185 3.160,18.624 3.019,18.843 C2.528,19.865 2.036,20.961 1.685,22.056 C1.545,22.494 1.755,22.932 2.177,23.079 C2.598,23.225 3.019,23.005 3.160,22.567 C3.511,21.618 3.862,20.668 4.353,19.719 C4.424,19.792 4.424,19.938 4.424,20.011 L4.775,22.494 C4.845,22.859 5.196,23.152 5.617,23.152 C6.389,23.079 7.092,22.713 7.653,22.129 C7.724,22.202 7.724,22.202 7.724,22.275 C7.724,22.421 7.864,22.640 8.075,22.713 C8.215,22.859 8.426,22.859 8.636,22.786 C9.268,22.567 9.830,22.348 10.462,22.129 C10.672,22.348 10.953,22.494 11.234,22.567 C11.445,22.567 11.585,22.640 11.796,22.640 C11.936,22.640 12.077,22.713 12.147,22.713 C12.217,22.713 12.287,22.786 12.358,22.786 L12.498,22.859 C13.060,23.152 13.692,23.225 14.183,23.298 L17.834,23.882 C17.904,23.882 17.904,23.882 17.975,23.882 C18.326,23.882 18.677,23.590 18.606,23.152 C18.677,22.713 18.396,22.275 17.975,22.202 Z" class="cls-1"/>
</svg>
