<svg xmlns="http://www.w3.org/2000/svg" xmlns:xlink="http://www.w3.org/1999/xlink" preserveAspectRatio="xMidYMid" width="29.813" height="22.5" viewBox="0 0 29.813 22.5">
  <defs>
    <style>
      .cls-1 {
        fill: #74496d;
        fill-rule: evenodd;
      }
    </style>
  </defs>
  <path d="M29.496,5.204 C29.470,5.757 29.596,6.353 29.496,6.896 C29.462,7.075 29.332,7.194 29.237,7.397 C29.156,7.570 29.120,7.801 29.043,7.961 C28.956,8.143 28.857,8.292 28.784,8.463 C28.637,8.808 28.573,9.192 28.461,9.653 C28.416,9.840 28.311,10.029 28.267,10.217 C28.165,10.649 28.146,11.077 28.008,11.408 C27.941,11.571 27.853,11.695 27.749,11.847 C27.540,12.152 27.171,12.617 26.909,12.975 C26.782,13.147 26.584,13.298 26.521,13.476 C26.469,13.623 26.480,13.882 26.456,14.040 C26.424,14.255 26.417,14.441 26.391,14.605 C26.334,14.958 26.325,15.347 26.197,15.670 C26.125,15.855 25.976,15.975 25.809,16.171 C25.490,16.547 25.133,16.947 24.775,17.362 C24.477,17.706 24.164,18.388 23.934,18.866 C23.721,19.309 23.534,19.728 23.352,20.182 C23.002,20.420 22.592,20.732 22.188,21.060 C22.045,21.175 21.937,21.220 21.736,21.373 C21.644,21.443 21.604,21.535 21.542,21.561 C21.428,21.607 21.207,21.588 21.024,21.624 C20.338,21.758 19.440,21.958 18.632,22.125 C18.302,22.193 17.940,22.307 17.662,22.313 C17.089,22.324 16.507,22.112 15.981,22.063 C15.644,22.215 15.311,22.374 14.947,22.501 C14.707,22.335 14.440,22.198 14.171,22.063 C13.567,22.110 12.964,22.376 12.295,22.376 C11.722,22.376 11.042,22.138 10.356,22.000 C9.652,21.858 8.889,21.816 8.416,21.624 C8.139,21.511 7.958,21.303 7.705,21.122 C7.617,21.060 7.511,21.046 7.446,20.998 C7.370,20.940 7.328,20.805 7.252,20.746 C7.166,20.681 7.073,20.682 6.993,20.621 C6.847,20.510 6.730,20.335 6.541,20.308 C6.372,19.845 6.168,19.424 5.959,18.991 C5.756,18.571 5.560,18.118 5.312,17.738 C4.861,17.047 4.145,16.498 3.631,15.795 C3.605,15.271 3.452,14.674 3.372,14.166 C3.344,13.985 3.363,13.761 3.308,13.601 C3.260,13.465 3.211,13.488 3.114,13.350 C3.050,13.261 3.049,13.125 2.984,13.037 C2.949,12.989 2.895,12.969 2.855,12.912 C2.815,12.853 2.732,12.765 2.661,12.661 C2.621,12.602 2.538,12.514 2.467,12.410 C2.419,12.340 2.302,12.157 2.208,12.034 C1.974,11.726 1.884,11.714 1.756,11.219 C1.637,10.756 1.440,10.024 1.303,9.464 C1.248,9.238 1.247,8.988 1.174,8.775 C1.045,8.396 0.734,7.940 0.527,7.522 C0.334,7.128 0.300,6.561 0.269,5.892 C0.251,5.510 0.290,5.133 0.269,4.763 C0.228,4.053 0.059,3.329 0.010,2.570 C-0.040,1.778 0.059,1.002 0.075,0.125 C0.576,1.243 0.923,2.457 1.368,3.698 C1.424,3.854 1.495,4.061 1.562,4.199 C1.780,4.649 2.173,5.013 2.467,5.390 C2.773,5.784 3.020,6.203 3.372,6.518 C3.748,6.573 4.125,6.624 4.536,6.643 C4.517,7.205 4.650,7.619 4.601,8.210 C4.868,8.474 5.304,8.573 5.700,8.711 C5.945,9.623 6.303,10.425 6.540,11.344 C7.175,11.102 7.843,10.894 8.416,10.592 C8.902,11.499 9.310,12.482 9.773,13.412 C10.223,13.220 10.774,13.128 11.196,12.911 C11.534,13.064 11.717,13.366 12.037,13.537 C12.690,12.908 13.371,12.348 14.235,11.720 C14.284,11.684 14.461,11.590 14.623,11.469 C15.031,11.163 14.898,11.086 15.464,11.469 C15.542,11.522 15.592,11.614 15.658,11.657 C15.960,11.853 16.229,12.067 16.564,12.283 C17.032,12.587 17.478,13.061 17.857,13.475 C18.223,13.349 18.343,12.985 18.697,12.848 C19.191,12.975 19.625,13.159 20.119,13.286 C20.611,12.426 21.016,11.480 21.413,10.529 C22.076,10.721 22.601,11.048 23.288,11.218 C23.659,10.429 23.854,9.468 24.194,8.648 C24.526,8.490 24.895,8.368 25.228,8.210 C25.230,7.648 25.336,7.186 25.292,6.580 C25.668,6.526 26.045,6.474 26.456,6.455 C26.681,6.330 26.761,6.084 26.909,5.891 C27.144,5.582 27.422,5.284 27.685,4.951 C27.723,4.902 27.707,4.818 27.749,4.763 C27.885,4.586 28.102,4.448 28.202,4.261 C28.286,4.104 28.319,3.903 28.396,3.697 C28.818,2.582 29.266,1.226 29.689,0.002 C30.034,1.935 29.569,3.636 29.496,5.204 ZM23.094,10.719 C22.643,10.554 22.293,10.453 21.931,10.155 C21.316,9.650 21.686,8.275 21.025,7.711 C20.928,7.628 20.877,7.577 20.735,7.487 C20.711,7.472 20.594,7.406 20.573,7.397 C20.440,7.339 20.050,7.120 19.862,7.084 C19.286,6.973 18.494,7.141 17.792,7.209 C17.112,7.276 16.361,7.452 15.788,7.335 C15.446,7.265 15.274,7.041 15.012,6.833 C14.570,7.500 13.282,7.254 12.232,7.146 C11.517,7.074 10.803,6.921 10.228,7.021 C9.810,7.094 8.955,7.602 8.740,8.024 C8.463,8.570 8.660,9.218 8.352,9.779 C8.220,10.019 8.139,10.044 7.900,10.218 C7.697,10.365 7.321,10.498 6.994,10.719 C6.979,9.736 6.794,8.726 6.930,7.648 C6.965,7.371 7.097,6.960 7.253,6.582 C7.320,6.421 7.426,6.319 7.512,6.144 C7.685,5.791 7.770,5.575 8.029,5.267 C8.344,4.892 8.734,4.447 9.193,4.139 C9.216,4.123 9.431,3.897 9.451,3.888 C9.484,3.873 10.031,3.584 10.163,3.512 C10.811,3.155 11.601,2.810 12.620,2.697 C12.943,2.661 13.268,2.582 13.590,2.634 C13.839,2.676 14.117,2.886 14.366,3.011 C14.600,3.128 14.862,3.216 15.076,3.386 C15.620,3.159 15.985,2.774 16.564,2.697 C16.977,2.642 17.486,2.742 17.921,2.822 C18.908,3.004 19.662,3.411 20.443,3.888 C20.532,3.942 20.747,4.126 20.767,4.138 C21.144,4.394 21.676,4.885 21.995,5.267 C22.051,5.333 22.087,5.363 22.149,5.439 C22.190,5.488 22.285,5.591 22.319,5.642 C22.430,5.813 22.593,6.203 22.706,6.457 C22.854,6.786 23.102,7.406 23.159,7.899 C23.262,8.794 22.989,9.702 23.094,10.719 Z" class="cls-1"/>
</svg>
