<svg xmlns="http://www.w3.org/2000/svg" xmlns:xlink="http://www.w3.org/1999/xlink" preserveAspectRatio="xMidYMid" width="324.25" height="37.28" viewBox="0 0 324.25 37.28">
  <defs>
    <style>
      .cls-1 {
        fill: #fff;
        fill-rule: evenodd;
      }
    </style>
  </defs>
  <path d="M320.313,29.445 C318.658,29.445 317.470,28.113 317.470,26.457 C317.470,24.333 319.377,22.534 321.393,22.534 C323.049,22.534 324.237,23.865 324.237,25.521 C324.237,27.681 322.293,29.445 320.313,29.445 ZM314.121,21.526 C313.689,24.045 312.825,28.653 314.049,29.265 L313.941,29.373 C311.349,29.769 306.346,29.625 307.318,23.829 L310.629,3.204 C310.737,2.484 310.161,1.944 309.154,2.268 L309.046,2.160 C310.305,1.548 312.825,0.756 314.553,0.756 C316.605,0.756 317.325,1.512 316.929,3.960 L314.121,21.526 ZM304.437,21.526 C304.005,24.045 303.141,28.653 304.365,29.265 L304.257,29.373 C301.665,29.769 296.662,29.625 297.634,23.829 L300.945,3.204 C301.053,2.484 300.477,1.944 299.470,2.268 L299.362,2.160 C300.621,1.548 303.141,0.756 304.869,0.756 C306.921,0.756 307.641,1.512 307.245,3.960 L304.437,21.526 ZM293.996,28.941 C293.204,33.872 289.496,37.292 282.657,37.292 C279.669,37.292 275.530,36.644 275.530,33.368 C275.530,31.353 277.150,29.877 279.201,29.877 C280.677,29.877 282.297,30.921 282.081,32.864 C280.749,33.008 280.065,33.944 280.065,34.880 C280.065,35.924 280.857,36.968 282.837,36.968 C285.645,36.968 286.509,34.880 287.156,31.533 L289.748,18.106 L289.604,18.070 C287.192,27.285 284.817,29.445 281.001,29.445 C276.034,29.445 276.178,25.737 276.574,23.254 L278.338,12.491 C278.446,11.771 277.870,11.231 276.862,11.555 L276.754,11.447 C278.014,10.835 280.533,10.043 282.261,10.043 C284.313,10.043 285.033,10.799 284.637,13.247 L282.765,24.765 C282.477,26.457 282.801,27.501 283.917,27.501 C286.113,27.501 287.876,23.362 289.208,17.998 C289.820,15.515 290.828,10.871 289.604,10.259 L289.712,10.151 C294.608,9.791 296.983,9.863 296.083,15.695 L293.996,28.941 ZM272.036,22.606 C273.476,27.141 274.663,28.473 276.211,29.085 L276.103,29.193 C274.771,29.445 273.296,29.697 271.892,29.697 C268.940,29.697 266.168,28.653 265.125,24.513 C264.405,21.670 264.225,19.834 263.181,19.762 L263.145,19.690 C265.593,18.754 268.868,16.666 268.868,13.355 C268.868,12.419 268.616,11.987 267.968,11.987 C266.060,11.987 263.541,15.982 262.173,21.490 C261.561,23.973 260.553,28.473 261.777,29.085 L261.669,29.193 C260.517,29.373 259.509,29.481 258.645,29.481 C255.838,29.481 254.578,28.257 255.298,23.829 L258.681,3.204 C258.789,2.484 258.213,1.944 257.206,2.268 L257.098,2.160 C258.357,1.548 260.877,0.756 262.605,0.756 C264.657,0.756 265.449,1.512 264.981,3.960 L261.633,21.382 L261.777,21.418 C264.261,11.951 267.932,10.043 271.064,10.043 C273.943,10.043 275.347,11.663 275.347,13.463 C275.347,17.818 267.104,18.790 263.433,19.654 C269.372,18.934 271.280,20.266 272.036,22.606 ZM242.373,17.890 L242.409,17.746 C247.268,17.998 249.176,15.227 249.176,12.671 C249.176,11.267 248.312,10.331 247.088,10.331 C244.317,10.331 242.337,14.687 242.121,18.322 C241.905,22.138 243.273,25.485 247.268,25.485 C248.924,25.485 251.120,24.909 252.812,22.930 L253.028,23.038 C250.760,26.781 246.944,29.445 242.769,29.445 C238.413,29.445 235.318,26.565 235.318,21.742 C235.318,15.587 240.573,10.043 247.412,10.043 C250.220,10.043 254.323,10.727 254.323,14.075 C254.323,16.738 251.228,20.230 242.373,17.890 ZM230.203,21.778 C228.763,30.957 219.044,32.432 214.221,32.432 C210.549,32.432 206.194,29.985 206.194,25.269 C206.194,21.058 209.866,18.430 213.501,18.430 C216.957,18.430 220.700,20.482 220.700,24.117 C220.700,26.529 218.864,28.545 216.021,28.545 C213.969,28.545 212.205,26.889 212.853,24.693 C214.581,24.657 215.949,23.218 215.949,21.310 C215.949,19.438 214.293,18.718 212.961,18.718 C210.406,18.718 207.670,21.418 207.670,25.197 C207.670,29.265 210.729,32.072 214.401,32.072 C218.900,32.072 221.960,28.941 222.896,22.714 L224.768,10.439 C225.488,5.688 230.743,4.680 233.587,4.536 L233.587,4.500 C229.087,4.500 225.164,0.972 220.700,0.972 C218.468,0.972 216.885,1.872 216.885,3.780 C216.885,5.472 218.145,6.048 219.260,6.048 C220.232,6.048 221.240,5.580 221.996,4.608 C226.208,6.516 223.472,11.807 219.260,11.807 C216.597,11.807 213.933,9.791 213.933,6.624 C213.933,3.276 216.705,0.648 220.592,0.648 C225.164,0.648 229.519,4.248 233.803,4.248 C234.594,4.248 234.954,3.780 234.954,3.348 C234.954,2.772 234.343,2.196 233.335,2.808 C232.507,1.260 233.695,0.000 234.990,0.000 C235.890,0.000 236.934,0.612 236.934,1.764 C236.934,4.392 233.155,2.988 232.147,9.395 L230.203,21.778 ZM193.303,20.626 C190.675,20.626 189.055,18.754 189.055,16.774 C189.055,15.623 189.631,13.895 191.683,13.355 C192.115,14.327 192.835,14.867 193.915,14.867 C195.427,14.867 196.290,13.751 196.290,12.419 C196.290,11.195 195.534,9.971 193.519,9.971 C190.495,9.971 187.903,13.103 187.364,18.610 C189.523,22.066 192.511,25.197 195.786,25.197 C196.290,25.197 196.866,25.053 197.262,24.729 L197.370,24.801 C195.067,27.933 192.691,29.445 190.531,29.445 C188.191,29.445 185.924,28.149 183.944,26.133 C180.884,28.581 178.077,29.445 175.701,29.445 C170.986,29.445 168.754,26.745 168.754,23.506 C168.754,18.286 173.577,15.263 177.933,14.615 C177.681,13.463 177.573,12.311 177.573,11.267 C177.573,6.444 181.604,3.744 186.032,3.744 C189.055,3.744 190.387,4.896 190.387,6.408 C190.387,9.323 186.608,11.627 184.412,12.563 C184.988,14.183 185.924,16.234 187.112,18.214 C187.400,13.859 190.027,9.431 193.627,9.431 C197.046,9.431 198.810,11.735 198.810,14.507 C198.810,17.602 196.650,20.626 193.303,20.626 ZM175.413,19.978 C175.413,24.549 179.193,28.437 183.836,26.025 C181.028,23.110 178.833,18.790 177.969,14.759 C176.097,15.766 175.413,18.070 175.413,19.978 ZM188.011,6.372 C188.011,5.040 187.400,4.032 185.960,4.032 C183.980,4.032 183.440,5.976 183.440,7.488 C183.440,8.927 183.764,10.655 184.376,12.455 C186.500,11.231 188.011,8.675 188.011,6.372 ZM157.591,21.346 C157.052,24.441 156.728,28.473 158.311,29.085 L158.203,29.193 C157.340,29.373 156.440,29.481 155.576,29.481 C152.588,29.481 150.104,28.185 150.824,23.650 L152.264,14.723 C152.516,13.031 152.516,11.987 151.652,11.987 C149.636,11.987 147.153,16.126 145.821,21.490 C145.209,23.973 144.201,28.473 145.425,29.085 L145.317,29.193 C144.165,29.373 143.157,29.481 142.293,29.481 C139.450,29.481 138.154,28.257 138.946,23.829 L140.962,12.491 C141.070,11.771 140.494,11.231 139.486,11.555 L139.378,11.447 C140.638,10.835 143.157,10.043 144.885,10.043 C146.937,10.043 147.765,10.799 147.261,13.247 L145.281,21.382 L145.425,21.418 C147.837,12.203 151.436,10.043 154.676,10.043 C159.175,10.043 158.887,13.751 158.455,16.234 L157.591,21.346 ZM125.445,29.445 C120.297,29.445 116.734,26.061 116.734,21.310 C116.734,15.155 122.025,10.043 128.504,10.043 C133.652,10.043 137.251,13.391 137.251,18.142 C137.251,24.117 131.852,29.445 125.445,29.445 ZM128.468,10.331 C124.509,10.331 123.321,21.706 123.321,25.449 C123.321,27.573 123.825,29.157 125.481,29.157 C129.476,28.653 130.628,18.322 130.628,14.075 C130.628,11.951 130.160,10.331 128.468,10.331 ZM104.637,29.445 C99.237,29.445 95.278,26.025 96.034,21.130 L98.877,3.204 C98.985,2.484 98.410,1.944 97.402,2.268 L97.294,2.160 C98.554,1.548 101.073,0.756 102.801,0.756 C104.853,0.756 105.645,1.512 105.249,3.960 L101.793,25.089 C101.685,25.773 101.109,28.869 102.693,28.869 C105.825,28.869 109.352,19.078 109.388,13.499 C109.388,11.987 109.172,10.907 108.416,10.907 C106.976,10.907 104.853,13.427 103.485,17.674 L103.197,17.566 C105.141,11.447 107.624,9.755 110.504,9.755 C113.924,9.755 115.831,11.915 115.831,15.802 C115.831,21.634 112.160,29.445 104.637,29.445 ZM90.848,18.754 C89.228,18.754 87.680,17.746 87.896,15.587 C89.228,15.587 90.560,14.327 90.560,12.635 C90.560,11.519 89.984,10.907 89.156,10.907 C86.925,10.907 84.693,15.299 83.145,21.526 C82.533,24.009 81.525,28.473 82.749,29.085 L82.641,29.193 C81.993,29.373 81.237,29.481 80.481,29.481 C77.998,29.481 75.478,28.257 76.270,23.829 L78.286,12.491 C78.394,11.771 77.818,11.231 76.810,11.555 L76.702,11.447 C77.962,10.835 80.481,10.043 82.209,10.043 C84.261,10.043 85.089,10.799 84.585,13.247 L82.605,21.418 L82.749,21.454 C85.161,12.239 87.572,9.755 91.244,9.755 C94.448,9.755 95.851,11.771 95.851,13.931 C95.851,16.342 94.052,18.754 90.848,18.754 ZM72.992,21.346 C72.416,24.441 72.128,28.473 73.711,29.085 L73.603,29.193 C72.776,29.373 71.912,29.445 71.048,29.445 C67.988,29.445 65.289,28.149 66.368,23.650 L67.700,18.106 L67.556,18.070 C65.145,27.285 62.769,29.445 58.953,29.445 C53.986,29.445 54.130,25.737 54.526,23.254 L56.290,12.491 C56.398,11.771 55.822,11.231 54.814,11.555 L54.706,11.447 C55.966,10.835 58.485,10.043 60.213,10.043 C62.265,10.043 62.985,10.799 62.589,13.247 L60.717,24.765 C60.429,26.457 60.753,27.501 61.869,27.501 C64.065,27.501 65.828,23.362 67.160,17.998 C67.772,15.515 68.780,10.871 67.556,10.259 L67.664,10.151 C72.560,9.791 75.115,9.899 74.035,15.695 L72.992,21.346 ZM41.097,29.445 C35.949,29.445 32.386,26.061 32.386,21.310 C32.386,15.155 37.677,10.043 44.156,10.043 C49.304,10.043 52.903,13.391 52.903,18.142 C52.903,24.117 47.504,29.445 41.097,29.445 ZM44.120,10.331 C40.161,10.331 38.973,21.706 38.973,25.449 C38.973,27.573 39.477,29.157 41.133,29.157 C45.128,28.653 46.280,18.322 46.280,14.075 C46.280,11.951 45.812,10.331 44.120,10.331 ZM20.072,15.227 L20.036,15.299 C23.563,15.371 30.582,16.450 30.582,22.462 C30.582,28.041 23.779,33.152 12.405,30.273 L12.441,30.021 C20.899,31.748 23.059,24.441 23.059,20.698 C23.059,18.106 21.835,15.443 18.236,15.443 L18.272,15.155 C22.663,15.155 23.995,11.879 23.995,7.847 C23.995,5.868 23.023,4.320 21.295,4.320 C19.856,4.320 18.776,5.508 18.164,9.395 L15.068,29.193 L4.126,29.193 L4.162,28.941 C7.905,28.941 8.229,26.925 8.913,22.714 L10.821,10.475 C11.541,5.724 16.796,4.680 19.640,4.536 L19.640,4.500 C15.140,4.500 11.217,0.972 6.753,0.972 C4.522,0.972 2.938,1.872 2.938,3.780 C2.938,5.472 4.198,6.048 5.313,6.048 C6.285,6.048 7.293,5.580 8.049,4.608 C12.261,6.516 9.525,11.807 5.313,11.807 C2.650,11.807 -0.014,9.791 -0.014,6.624 C-0.014,3.276 2.758,0.648 6.645,0.648 C11.217,0.648 15.572,4.248 19.856,4.248 C20.647,4.248 21.007,3.780 21.007,3.348 C21.007,2.772 20.396,2.196 19.388,2.808 C18.560,1.260 19.748,0.000 21.043,0.000 C22.015,0.000 23.023,0.576 23.023,1.944 C23.023,3.312 21.583,3.960 20.899,4.176 C21.511,4.068 22.159,3.960 22.807,3.960 C26.803,3.960 30.906,5.508 30.906,8.891 C30.906,14.219 24.391,15.047 20.072,15.227 Z" class="cls-1"/>
</svg>
