<svg xmlns="http://www.w3.org/2000/svg" xmlns:xlink="http://www.w3.org/1999/xlink" preserveAspectRatio="xMidYMid" width="130.125" height="90.59" viewBox="0 0 130.125 90.59">
  <defs>
    <style>
      .cls-1 {
        fill: #fff;
        fill-rule: evenodd;
      }
    </style>
  </defs>
  <path d="M128.153,58.494 C127.325,58.805 126.730,58.361 126.730,57.533 C126.730,56.471 127.685,55.212 128.693,54.834 C129.521,54.523 130.115,54.966 130.115,55.795 C130.115,56.875 129.143,58.122 128.153,58.494 ZM125.255,25.724 C124.232,31.944 123.617,39.797 126.620,39.926 L126.415,40.201 C124.777,41.105 123.072,41.895 121.434,42.457 C115.770,44.402 111.062,43.562 112.427,34.496 L115.156,16.636 C115.634,13.265 115.634,11.286 113.996,11.848 C110.175,13.160 105.467,22.624 102.942,33.658 C101.782,38.765 99.871,47.950 102.191,48.314 L101.987,48.589 C99.803,49.679 97.892,50.540 96.255,51.102 C90.864,52.953 88.408,51.476 89.909,42.568 L93.730,19.762 C93.935,18.327 92.843,17.678 90.932,18.948 L90.728,18.814 C93.116,16.834 97.892,13.693 101.168,12.568 C105.057,11.233 106.627,12.127 105.671,17.095 L101.918,33.805 L102.191,33.779 C106.763,14.741 113.587,8.304 119.728,6.196 C128.257,3.267 127.712,10.483 126.893,15.472 L125.255,25.724 ZM77.291,18.105 L77.154,17.947 C78.587,15.203 79.270,9.783 77.223,7.893 C78.860,4.328 81.999,1.340 84.797,0.379 C87.390,-0.511 90.460,0.004 90.460,3.825 C90.460,9.148 84.319,15.965 77.291,18.105 ZM86.093,23.817 L83.500,40.401 C82.682,45.459 81.112,54.391 83.637,54.684 L83.432,54.959 C81.726,55.886 80.020,56.676 78.451,57.215 C73.265,58.996 69.171,58.081 70.604,49.196 L74.152,26.484 C74.357,25.049 73.265,24.400 71.354,25.670 L71.150,25.536 C73.538,23.556 78.314,20.414 81.590,19.290 C85.479,17.955 86.844,18.919 86.093,23.817 ZM72.057,11.099 L69.464,28.434 L68.850,28.645 C70.351,18.099 68.850,12.814 58.205,16.469 C51.381,18.812 50.153,22.100 49.130,29.206 L47.151,42.782 C54.452,40.276 60.593,34.755 62.163,26.915 L62.640,26.751 L58.069,50.361 L57.591,50.525 C58.887,43.461 54.384,40.777 47.151,43.260 L45.513,53.921 C42.784,72.259 24.360,81.382 15.216,84.521 C8.256,86.911 -0.000,85.105 -0.000,76.166 C-0.000,68.183 6.960,60.812 13.852,58.446 C20.402,56.197 27.499,57.650 27.499,64.542 C27.499,69.113 24.019,74.129 18.628,75.980 C14.739,77.316 11.395,75.325 12.623,70.741 C15.899,69.548 18.492,65.928 18.492,62.312 C18.492,58.763 15.353,58.476 12.828,59.343 C7.983,61.007 2.797,67.905 2.797,75.070 C2.797,82.780 8.598,86.111 15.558,83.722 C24.087,80.793 29.887,72.865 31.661,60.451 L35.209,36.033 C36.574,26.557 46.537,21.158 51.927,19.034 L51.927,18.966 C43.398,21.894 35.960,17.761 27.499,20.666 C23.268,22.118 20.266,24.855 20.266,28.472 C20.266,31.679 22.654,31.951 24.769,31.224 C26.612,30.592 28.522,29.049 29.955,26.714 C37.939,27.590 32.753,39.401 24.769,42.142 C19.720,43.876 14.670,41.788 14.670,35.783 C14.670,29.437 19.925,22.652 27.294,20.122 C35.960,17.147 44.217,21.135 52.337,18.348 C53.838,17.832 54.520,16.711 54.520,15.892 C54.520,14.800 53.360,14.107 51.450,15.923 C49.880,13.527 52.132,10.366 54.588,9.523 C56.431,8.890 58.341,9.326 58.341,11.919 C58.341,14.512 55.612,16.677 54.316,17.532 L54.316,17.600 C58.069,15.766 60.934,14.918 72.057,11.099 ZM43.418,86.835 C44.246,86.524 44.840,86.967 44.840,87.795 C44.840,88.876 43.868,90.123 42.878,90.494 C42.050,90.805 41.455,90.362 41.455,89.534 C41.455,88.471 42.410,87.213 43.418,86.835 ZM48.584,84.896 C49.412,84.585 50.006,85.028 50.006,85.857 C50.006,86.937 49.034,88.184 48.044,88.556 C47.216,88.867 46.621,88.423 46.621,87.595 C46.621,86.533 47.576,85.274 48.584,84.896 ZM53.750,82.957 C54.578,82.647 55.173,83.090 55.173,83.918 C55.173,84.998 54.200,86.246 53.210,86.617 C52.382,86.928 51.787,86.485 51.787,85.656 C51.787,84.594 52.742,83.336 53.750,82.957 ZM56.014,85.997 C56.950,85.646 57.850,85.920 57.724,87.192 C57.058,87.406 56.680,87.872 56.680,88.412 C56.680,88.808 56.914,89.008 57.346,88.846 C58.156,88.542 58.426,87.703 58.426,86.892 C58.426,85.362 56.842,85.596 57.094,83.899 L58.390,75.274 L57.436,75.632 L57.472,75.439 L58.408,75.088 C58.822,72.429 59.200,70.163 61.955,69.129 C63.558,68.528 64.548,68.966 64.548,70.119 C64.548,71.235 63.774,72.408 62.387,72.928 C61.361,73.313 60.407,72.717 60.893,71.472 C61.505,71.369 62.027,70.777 62.027,70.164 C62.027,69.714 61.865,69.379 61.325,69.582 C60.533,69.879 59.687,71.043 59.687,72.015 C59.687,73.546 61.523,73.198 61.361,73.979 L62.874,73.412 L62.838,73.605 L61.613,74.065 L60.191,83.637 C59.849,85.926 58.678,88.832 56.410,89.684 C54.861,90.265 53.979,89.786 53.979,88.651 C53.979,87.319 55.023,86.369 56.014,85.997 ZM68.538,71.160 C71.113,70.194 72.913,71.193 72.913,73.569 C72.913,76.558 70.213,80.237 67.008,81.439 C64.433,82.405 62.650,81.382 62.650,79.005 C62.650,75.926 65.297,72.376 68.538,71.160 ZM67.026,81.288 C69.024,80.286 69.600,74.903 69.600,72.778 C69.600,71.716 69.366,70.993 68.520,71.311 C66.540,72.054 65.945,77.967 65.945,79.839 C65.945,80.902 66.197,81.599 67.026,81.288 ZM75.157,69.901 C75.211,69.520 74.923,69.358 74.419,69.709 L74.365,69.676 C74.995,69.133 76.256,68.264 77.120,67.940 C78.146,67.555 78.560,67.777 78.308,69.096 L77.318,73.555 L77.390,73.546 C78.596,68.484 79.803,66.789 81.639,66.100 C83.242,65.498 83.944,66.243 83.944,67.323 C83.944,68.530 83.044,70.074 81.441,70.675 C80.631,70.979 79.857,70.766 79.965,69.645 C80.631,69.395 81.297,68.515 81.297,67.668 C81.297,67.110 81.009,66.912 80.595,67.068 C79.478,67.487 78.362,70.102 77.588,73.508 C77.282,74.865 76.778,77.287 77.390,77.363 L77.336,77.437 C77.012,77.649 76.634,77.845 76.256,77.987 C75.013,78.453 73.753,78.314 74.149,75.951 L75.157,69.901 ZM90.025,64.321 C90.079,63.941 89.791,63.779 89.287,64.130 L89.233,64.096 C89.863,63.554 91.123,62.685 91.988,62.360 C93.014,61.975 93.428,62.198 93.176,63.517 L92.186,67.958 L92.258,67.949 C93.464,62.886 95.265,61.130 96.885,60.522 C99.136,59.678 98.992,61.586 98.776,62.910 L98.344,65.629 C98.074,67.279 97.911,69.356 98.704,69.365 L98.650,69.439 C98.218,69.691 97.767,69.914 97.335,70.076 C95.841,70.637 94.599,70.455 94.959,68.051 L95.679,63.316 C95.805,62.422 95.805,61.900 95.373,62.062 C94.364,62.441 93.122,64.978 92.456,67.910 C92.150,69.268 91.646,71.707 92.258,71.784 L92.204,71.858 C91.628,72.164 91.123,72.407 90.691,72.570 C89.269,73.104 88.621,72.734 89.017,70.371 L90.025,64.321 ZM106.047,57.084 C108.621,56.118 110.422,57.117 110.422,59.494 C110.422,62.483 107.721,66.161 104.516,67.364 C101.941,68.330 100.159,67.306 100.159,64.930 C100.159,61.851 102.806,58.301 106.047,57.084 ZM104.534,67.213 C106.533,66.211 107.109,60.827 107.109,58.702 C107.109,57.640 106.875,56.918 106.028,57.235 C104.048,57.978 103.454,63.891 103.454,65.764 C103.454,66.826 103.706,67.524 104.534,67.213 ZM112.581,55.857 C112.635,55.476 112.347,55.314 111.843,55.666 L111.789,55.632 C112.419,55.089 113.679,54.220 114.544,53.896 C115.570,53.511 115.930,53.754 115.732,55.052 L114.796,61.166 C114.652,62.066 114.814,62.527 115.372,62.318 C116.470,61.906 117.208,59.558 117.947,56.598 C118.289,55.227 118.757,52.729 118.145,52.653 L118.199,52.578 C120.647,51.479 121.872,51.056 121.386,54.155 L120.719,58.402 C120.467,60.027 120.485,60.705 121.259,60.414 C122.880,59.806 125.959,55.626 125.959,53.321 C125.959,52.547 125.563,52.173 124.861,52.437 C124.320,52.640 123.816,53.117 123.600,53.702 C122.682,53.993 122.232,53.604 122.232,52.847 C122.232,51.623 123.168,50.515 124.176,50.137 C125.275,49.725 126.391,50.170 126.391,52.115 C126.391,55.860 122.862,60.479 119.621,61.695 C117.983,62.310 117.100,61.759 117.514,59.839 L118.217,56.551 L118.145,56.560 C116.938,61.622 115.822,63.121 113.913,63.837 C111.429,64.770 111.501,62.888 111.699,61.571 L112.581,55.857 Z" class="cls-1"/>
</svg>
